<svg width="327" height="303" viewBox="0 0 327 303" fill="none" xmlns="http://www.w3.org/2000/svg">
<g clip-path="url(#clip0_97_3728)">
<rect x="220.522" y="43.0217" width="57.9565" height="57.9565" rx="28.9783" fill="#0EAD00"/>
<rect x="220.522" y="43.0217" width="57.9565" height="57.9565" rx="28.9783" stroke="#0EAD00" stroke-width="4.04348"/>
<path d="M234.674 71.4758L244.258 81.0603L263.427 61.8913" stroke="white" stroke-width="7.18841" stroke-linecap="round" stroke-linejoin="round"/>
<path d="M212.672 295.915C225.112 294.859 234.341 283.918 233.285 271.478L212.268 150.62C211.212 138.18 200.271 128.952 187.831 130.008C175.392 131.064 166.163 142.005 167.219 154.445L188.236 275.303C189.292 287.742 200.233 296.971 212.672 295.915Z" fill="#CFCFCF" stroke="#262525" stroke-width="1.4" stroke-linecap="round" stroke-linejoin="round"/>
<path d="M215.626 149.212L237.242 267.284C239.724 280.835 231.353 294.012 218.033 297.525C203.188 301.44 188.151 291.895 185.378 276.795L163.693 158.734C161.038 144.281 170.711 130.448 185.198 127.98L185.266 127.969C199.495 125.546 213.026 135.014 215.626 149.211V149.212Z" fill="white" stroke="#262525" stroke-width="1.4" stroke-linecap="round" stroke-linejoin="round"/>
<path d="M301.072 154.805C291.147 147.231 276.962 149.137 269.388 159.062L192.607 259.675C185.033 269.601 186.939 283.786 196.863 291.36C206.789 298.934 220.974 297.028 228.548 287.103L305.329 186.489C312.903 176.564 310.996 162.379 301.072 154.805Z" fill="#CFCFCF" stroke="#262525" stroke-width="1.4" stroke-linecap="round" stroke-linejoin="round"/>
<path d="M190.005 257.176L234.934 193.999C236.221 192.19 238.237 191.038 240.449 190.849L241.479 190.761L241.157 188.231C241.033 187.258 241.285 186.276 241.862 185.484L244.847 181.387C246.255 179.456 248.76 178.673 251.017 179.457L253.169 180.206L253.866 181.992C259 195.156 271.704 203.805 285.833 203.756L292.088 203.734L293.062 204.978C294.795 207.195 294.987 210.249 293.545 212.666L293.069 213.463C292.371 214.634 291.267 215.506 289.967 215.912L287.865 216.571L231.927 288.388C223.186 299.609 207.077 301.782 195.677 293.276C184.292 284.783 181.774 268.753 190.006 257.177L190.005 257.176Z" fill="white"/>
<path d="M196.058 248.663L234.934 193.999C236.221 192.19 238.237 191.038 240.448 190.849L241.479 190.761L241.156 188.231C241.032 187.258 241.285 186.276 241.861 185.484L244.847 181.387C246.255 179.456 248.76 178.673 251.017 179.457L253.169 180.206L253.866 181.992C258.999 195.156 271.703 203.805 285.833 203.756L292.088 203.734L293.061 204.978C294.795 207.195 294.987 210.249 293.545 212.666L293.069 213.463C292.371 214.634 291.267 215.506 289.966 215.912L287.865 216.571L231.927 288.388C223.186 299.609 207.077 301.782 195.677 293.276C191.08 289.846 187.928 285.188 186.347 280.09C186.347 280.09 185.373 276.773 184.99 274.688C184.607 272.603 184.367 271.294 184.367 271.294" stroke="#262525" stroke-width="1.4" stroke-linecap="round" stroke-linejoin="round"/>
<path d="M241.479 190.761C241.479 190.761 248.621 205.406 260.621 211.729" stroke="#262525" stroke-width="1.4" stroke-linecap="round" stroke-linejoin="round"/>
<path d="M287.864 216.57C287.864 216.57 280.731 217.602 273.644 214.118" stroke="#262525" stroke-width="1.4" stroke-linecap="round" stroke-linejoin="round"/>
<path d="M125.556 125.833L137.756 128.276C143.269 129.38 148.634 125.805 149.737 120.293L158.575 76.1485C159.679 70.6351 156.104 65.271 150.592 64.1679L138.391 61.725C132.878 60.6209 127.514 64.1958 126.411 69.7083L117.572 113.852C116.468 119.366 120.043 124.73 125.556 125.833Z" fill="#CFCFCF" stroke="#262525" stroke-width="1.4" stroke-linecap="round" stroke-linejoin="round"/>
<path d="M131.853 77.1286L134.956 61.6281C136.069 61.4692 137.226 61.4919 138.391 61.7249L150.592 64.1679C156.105 65.2719 159.679 70.636 158.575 76.1485L151.41 111.937C136.695 108.99 128.618 93.2837 131.853 77.1286Z" fill="#262525" stroke="#262525" stroke-width="1.4" stroke-linecap="round" stroke-linejoin="round"/>
<path d="M154.716 106.516C166.73 109.709 179.059 102.557 182.252 90.5415L193.378 48.6708C197.549 32.973 188.205 16.8659 172.507 12.694C156.809 8.52303 140.702 17.867 136.53 33.5648L128.949 62.0976C123.798 81.4785 135.335 101.365 154.716 106.515V106.516Z" fill="#CFCFCF" stroke="#262525" stroke-width="1.4" stroke-linecap="round" stroke-linejoin="round"/>
<path d="M189.854 61.9327C189.854 61.9327 195.922 52.1061 199.441 44.1132C202.96 36.1203 200.902 26.3661 196.689 25.2463C196.689 25.2463 192.167 9.53632 165.874 5.06071C139.582 0.585109 132.957 24.7724 132.957 24.7724C132.957 24.7724 126.381 25.3964 121.882 33.9662C117.383 42.5361 120.487 56.696 122.427 58.8439C122.427 58.8439 117.111 71.1335 124.705 78.2239L128.036 67.4216L136.921 54.8736C136.921 54.8736 140.326 41.2443 144.544 37.8257C150.278 33.1764 150.653 26.1261 150.653 26.1261C150.653 26.1261 157.898 22.7502 164.561 28.706C171.035 34.4925 172.011 51.4017 192.304 52.7144L189.855 61.9335L189.854 61.9327Z" fill="#262525" stroke="#262525" stroke-width="1.4" stroke-linecap="round" stroke-linejoin="round"/>
<path d="M162.872 62.1657C162.872 62.1657 160.737 54.3421 148.964 56.3635" stroke="#262525" stroke-width="1.4" stroke-linecap="round" stroke-linejoin="round"/>
<path d="M155.71 59.0978C155.245 60.8486 156.228 61.2903 157.496 61.6272C158.764 61.964 159.837 62.0688 160.302 60.318C160.925 57.9737 159.897 57.7005 158.629 57.3636C157.361 57.0267 156.326 56.7824 155.71 59.0978Z" fill="#262525"/>
<path d="M174.569 65.2737C174.569 65.2737 180.306 59.5413 189.523 67.1405" stroke="#262525" stroke-width="1.4" stroke-linecap="round" stroke-linejoin="round"/>
<path d="M184.691 66.7268C184.225 68.4776 183.153 68.3729 181.885 68.036C180.616 67.6991 179.634 67.2575 180.099 65.5067C180.722 63.1624 181.749 63.4356 183.017 63.7725C184.286 64.1094 185.306 64.4114 184.691 66.7268Z" fill="#262525"/>
<path d="M171.227 59.7952C171.227 59.7952 171.425 71.8998 170.677 79.0583C170.583 79.9642 169.75 80.6118 168.848 80.4766C167.197 80.2296 162.302 78.6987 162.302 78.6987" stroke="#262525" stroke-width="1.4" stroke-linecap="round" stroke-linejoin="round"/>
<path d="M157.915 86.7309C149.156 84.549 147.713 76.563 147.713 76.563" stroke="#262525" stroke-width="1.4" stroke-linecap="round" stroke-linejoin="round"/>
<path d="M155.179 51.5771L161.47 53.2494C162.329 53.4772 163.21 52.9666 163.439 52.1078C163.666 51.249 163.156 50.3684 162.297 50.1397L156.005 48.4674C155.146 48.2396 154.266 48.7502 154.037 49.609C153.808 50.4678 154.32 51.3485 155.179 51.5771Z" fill="#262525" stroke="#262525" stroke-width="1.4" stroke-linecap="round" stroke-linejoin="round"/>
<path d="M179.569 58.0584L185.861 59.7307C186.72 59.9584 187.6 59.4479 187.829 58.5891C188.058 57.7303 187.546 56.8496 186.687 56.621L180.395 54.9487C179.537 54.7209 178.656 55.2315 178.427 56.0903C178.199 56.9491 178.71 57.8297 179.569 58.0584Z" fill="#262525" stroke="#262525" stroke-width="1.4" stroke-linecap="round" stroke-linejoin="round"/>
<path d="M121.635 62.1439L126.946 66.6448C131.269 70.3087 137.934 68.2175 139.39 62.7409C140.156 59.8624 139.195 56.7999 136.922 54.8745L131.611 50.3736C127.288 46.7097 120.623 48.8008 119.167 54.2775C118.403 57.1559 119.363 60.2185 121.635 62.1439Z" fill="#CFCFCF"/>
<path d="M138.247 56.3251C137.874 55.7944 137.431 55.3056 136.921 54.8736L131.61 50.3727C127.287 46.7088 120.622 48.8 119.166 54.2766C118.402 57.1551 119.362 60.2176 121.634 62.143L126.945 66.6439C127.49 67.1056 128.073 67.4765 128.677 67.7602" stroke="#262525" stroke-width="1.4" stroke-linecap="round" stroke-linejoin="round"/>
<path d="M131.843 63.5508C132.81 62.8438 133.549 61.8131 133.88 60.5659C134.65 57.6674 132.926 54.6938 130.027 53.924C128.117 53.4161 126.175 53.993 124.852 55.2742" stroke="#262525" stroke-width="1.4" stroke-linecap="round" stroke-linejoin="round"/>
<path d="M133.938 59.6565C133.344 59.1564 132.808 58.8221 132.008 58.61C130.197 58.1291 128.356 58.6222 127.042 59.7673" stroke="#262525" stroke-width="1.4" stroke-linecap="round" stroke-linejoin="round"/>
<path d="M171.67 298.881H29.8457L55.9575 120.246C57.3661 111.325 65.3189 104.934 74.3338 105.477L118.668 108.152L150.877 114.601L196.016 130.895C204.44 133.936 209.218 142.836 207.099 151.537L171.67 298.881L171.67 298.881Z" fill="#CFCFCF"/>
<path d="M150.877 114.601L196.016 130.895C204.44 133.936 209.218 142.836 207.099 151.537L171.67 298.881H29.8457L55.9575 120.247C57.3661 111.326 65.3189 104.934 74.3338 105.478L118.711 108.161" stroke="#262525" stroke-width="1.4" stroke-linecap="round" stroke-linejoin="round"/>
<path d="M104.609 366.928L103.654 337.099C103.049 318.196 118.21 302.542 137.123 302.542C156.037 302.542 171.198 318.196 170.593 337.099L169.638 366.928H104.608H104.609Z" fill="#CFCFCF" stroke="#262525" stroke-width="1.4" stroke-linecap="round" stroke-linejoin="round"/>
<path d="M97.6539 369.492H172.739L173.47 336.187C173.918 315.716 157.448 298.881 136.973 298.881C116.497 298.881 95.4449 316.161 96.3037 336.897L97.6539 369.492Z" fill="#262525" stroke="#262525" stroke-width="1.4" stroke-linecap="round" stroke-linejoin="round"/>
<path d="M29.8457 298.881L30.9978 349.473H170.518L171.67 298.881H29.8457Z" fill="#CFCFCF" stroke="#262525" stroke-width="1.4" stroke-linecap="round" stroke-linejoin="round"/>
<path d="M173.128 351.812L175.879 272.235L27.7419 266.878L25.3662 291.934L25.7729 351.812H173.128Z" fill="#262525" stroke="#262525" stroke-width="1.4" stroke-linecap="round" stroke-linejoin="round"/>
<path d="M29.3776 366.928L28.4228 337.099C27.8179 318.196 42.979 302.542 61.8921 302.542C80.8052 302.542 95.9662 318.196 95.3605 337.099L94.4065 366.928H29.3776Z" fill="#CFCFCF" stroke="#262525" stroke-width="1.4" stroke-linecap="round" stroke-linejoin="round"/>
<path d="M96.9886 369.492H26.2701L25.3798 337.872C24.8073 317.52 41.1492 300.711 61.5093 300.711C81.8695 300.711 98.0639 317.351 97.6459 337.6L96.9878 369.491L96.9886 369.492Z" fill="#262525" stroke="#262525" stroke-width="1.4" stroke-linecap="round" stroke-linejoin="round"/>
<path d="M53.8169 119.588L27.8579 259.695C25.339 273.291 23.6598 287.027 22.8307 300.829L20.6348 337.374H38.8732L44.3124 302.529C45.4941 294.956 48.0496 287.662 51.8523 281.007L55.7353 274.211L53.7968 287.93C53.3648 290.987 53.1588 294.072 53.1789 297.159L53.4495 337.374H178.982L179.796 287.454L209.885 152.574C212.241 142.015 206.217 131.388 195.948 127.985L155.63 114.627C154.759 114.338 153.817 114.715 153.385 115.524C151.896 118.312 147.952 124.25 141.37 124.25C129.185 124.25 119.195 112.706 115.679 108.076C114.764 106.871 113.38 106.133 111.868 106.041L74.0566 103.759C64.2815 103.169 55.6009 109.957 53.8169 119.586V119.588Z" fill="white"/>
<path d="M204.847 175.163L179.797 287.455L178.983 337.374H53.4503L53.1798 297.16C53.1588 294.072 53.3657 290.988 53.7977 287.931L55.7362 274.212L51.8532 281.008C48.0505 287.663 45.495 294.957 44.3132 302.53L38.8741 337.375H20.6348L22.8307 300.829C23.6598 287.028 25.339 273.291 27.8579 259.696L53.8169 119.589C55.6009 109.961 64.2824 103.172 74.0566 103.762L111.868 106.045C113.379 106.135 114.764 106.875 115.679 108.08C119.195 112.709 129.185 124.253 141.37 124.253C147.952 124.253 151.896 118.316 153.385 115.527C153.817 114.718 154.759 114.341 155.63 114.63L195.948 127.989C196.863 128.293 197.745 128.653 198.59 129.066C198.59 129.066 204.246 131.375 206.871 133.965" stroke="#262525" stroke-width="1.4" stroke-linecap="round" stroke-linejoin="round"/>
<path d="M183.434 271.156L27.8291 259.871C27.8396 259.812 27.8474 259.753 27.8588 259.696L37.846 205.792L193.147 227.616L183.434 271.157V271.156Z" fill="#262525" stroke="#262525" stroke-width="1.4" stroke-linecap="round" stroke-linejoin="round"/>
<path d="M37.8454 205.791L193.147 227.616L190.753 238.346L35.0176 221.053L37.8454 205.791Z" fill="white" stroke="#262525" stroke-width="1.4" stroke-linecap="round" stroke-linejoin="round"/>
<path d="M183.434 271.156L27.8291 259.871C27.8396 259.812 27.8474 259.753 27.8588 259.696L31.2539 241.377L186.628 256.841L183.435 271.157L183.434 271.156Z" fill="white" stroke="#262525" stroke-width="1.4" stroke-linecap="round" stroke-linejoin="round"/>
<path d="M30.4506 268.052C42.2139 272.236 55.1406 266.091 59.3247 254.329L90.1748 135.6C94.358 123.836 88.2136 110.91 76.4512 106.725C64.6879 102.542 51.7612 108.687 47.5771 120.449L16.727 239.179C12.5438 250.942 18.6881 263.869 30.4506 268.053V268.052Z" fill="#CFCFCF" stroke="#262525" stroke-width="1.4" stroke-linecap="round" stroke-linejoin="round"/>
<path d="M94.9718 136.584L64.3713 252.617C60.8584 265.938 47.6821 274.308 34.1304 271.828C19.0296 269.064 9.47446 254.032 13.381 239.185L43.9152 123.134C47.6594 108.904 62.3133 100.482 76.4933 104.41C90.4211 108.268 98.6575 122.608 94.9718 136.583V136.584Z" fill="white"/>
<path d="M90.2832 154.362L64.3713 252.617C60.8584 265.938 47.6821 274.308 34.1304 271.828C19.0296 269.064 9.47446 254.032 13.381 239.185L43.9152 123.134C47.3888 109.932 60.2536 101.729 73.4177 103.749L79.6842 104.099" stroke="#262525" stroke-width="1.4" stroke-linecap="round" stroke-linejoin="round"/>
<path d="M173.023 183.448C167.685 172.161 154.209 167.339 142.922 172.677L28.508 226.786C17.2221 232.124 12.3991 245.599 17.737 256.886C23.0749 268.173 36.5506 272.995 47.8374 267.657L162.252 213.548C173.538 208.21 178.36 194.735 173.023 183.448Z" fill="#CFCFCF" stroke="#262525" stroke-width="1.4" stroke-linecap="round" stroke-linejoin="round"/>
<path d="M27.4227 222.163L92.3634 190.913C93.4422 190.393 94.6536 190.218 95.8345 190.408L98.0199 190.761L98.1517 189.776C98.3105 188.587 99.069 187.561 100.161 187.061L105.073 184.811C107.189 183.841 109.685 184.87 110.502 187.051L110.806 187.864L110.926 191.751C111.365 206.059 120.632 218.595 134.183 223.211L138.62 224.722L139.431 226.348C140.296 228.078 139.852 230.175 138.363 231.408L137.378 232.224C136.032 233.338 134.339 233.949 132.591 233.949H131.143L49.4716 269.986C36.0597 275.905 20.3959 269.731 14.6286 256.252C9.08558 243.297 14.7229 228.273 27.4209 222.163L27.4227 222.163Z" fill="white"/>
<path d="M98.0205 190.761C98.0205 190.761 98.0205 210.505 107.828 220.167" stroke="#262525" stroke-width="1.4" stroke-linecap="round" stroke-linejoin="round"/>
<path d="M131.144 233.948C131.144 233.948 124.304 232.4 119.228 227.496" stroke="#262525" stroke-width="1.4" stroke-linecap="round" stroke-linejoin="round"/>
<path d="M36.6793 217.709L92.3643 190.912C93.443 190.392 94.6544 190.217 95.8353 190.407L98.0207 190.76L98.1525 189.775C98.3114 188.586 99.0698 187.56 100.162 187.06L105.074 184.81C107.19 183.841 109.685 184.87 110.502 187.05L110.807 187.863L110.927 191.75C111.366 206.058 120.633 218.594 134.183 223.21L138.621 224.721L139.432 226.347C140.296 228.077 139.853 230.174 138.364 231.407L137.379 232.223C136.033 233.338 134.34 233.948 132.591 233.948H131.144L49.4725 269.985C36.0605 275.904 20.3967 269.73 14.6294 256.251C12.032 250.18 11.8898 243.656 13.7785 237.806L16.6281 226.838" stroke="#262525" stroke-width="1.4" stroke-linecap="round" stroke-linejoin="round"/>
<path d="M167.806 211.671L150.908 211.728C137.359 211.775 126.339 200.829 126.293 187.28L126.208 162.522L178.978 162.341L178.985 164.262C179.005 170.043 183.707 174.713 189.488 174.693L192.213 174.683L192.255 187.054C192.302 200.603 181.356 211.624 167.807 211.67L167.806 211.671Z" fill="#CFCFCF"/>
<path d="M136.573 207.167C130.372 202.734 126.32 195.485 126.292 187.28L126.207 162.522L178.977 162.341L178.984 164.262C179.004 170.043 183.707 174.713 189.487 174.693L192.212 174.683L192.255 187.054C192.301 200.603 181.355 211.624 167.806 211.67L165.416 211.728C165.416 211.728 163.628 212.889 162.583 213.388" stroke="#262525" stroke-width="1.4" stroke-linecap="round" stroke-linejoin="round"/>
<path d="M178.983 164.156L165.79 164.201L165.667 135.068C165.655 131.425 168.598 128.462 172.241 128.449C175.884 128.437 178.848 131.38 178.86 135.023L178.983 164.156Z" fill="#CFCFCF"/>
<path d="M165.791 164.201L165.668 135.068C165.656 131.425 168.599 128.462 172.242 128.449C175.885 128.437 178.849 131.38 178.861 135.023L178.984 164.156" fill="#CFCFCF"/>
<path d="M165.791 164.201L165.668 135.068C165.656 131.425 168.599 128.462 172.242 128.449C175.885 128.437 178.849 131.38 178.861 135.023L178.984 164.156" stroke="#262525" stroke-width="1.4" stroke-linecap="round" stroke-linejoin="round"/>
<path d="M167.537 139.617C165.007 137.017 165.051 132.862 167.636 130.316L175.762 122.352C178.372 119.811 182.549 119.868 185.089 122.478C187.63 125.089 187.573 129.265 184.963 131.806L176.892 139.716C174.285 142.282 170.089 142.237 167.538 139.615L167.537 139.617Z" fill="#CFCFCF"/>
<path d="M178.879 139.515L178.872 137.775L184.963 131.806C187.573 129.265 187.63 125.089 185.089 122.478C182.549 119.868 178.372 119.811 175.762 122.352L167.636 130.316C166.312 131.619 165.655 133.345 165.668 135.068V139.426" fill="#CFCFCF"/>
<path d="M178.879 139.515L178.872 137.775L184.963 131.806C187.573 129.265 187.63 125.089 185.089 122.478C182.549 119.868 178.372 119.811 175.762 122.352L167.636 130.316C166.312 131.619 165.655 133.345 165.668 135.068V139.426" stroke="#262525" stroke-width="1.4" stroke-linecap="round" stroke-linejoin="round"/>
<path d="M178.873 137.776L174.238 136.649" stroke="#262525" stroke-width="1.4" stroke-linecap="round" stroke-linejoin="round"/>
<path d="M165.791 164.201L152.599 164.247L152.458 151.097C152.446 147.454 155.389 144.49 159.032 144.477C162.675 144.465 165.638 147.408 165.651 151.051L165.791 164.201Z" fill="#CFCFCF"/>
<path d="M152.599 164.246L152.458 151.096C152.446 147.453 155.389 144.49 159.032 144.477C162.675 144.464 165.638 147.407 165.651 151.05L165.791 164.2" fill="#CFCFCF"/>
<path d="M152.599 164.246L152.458 151.096C152.446 147.453 155.389 144.49 159.032 144.477C162.675 144.464 165.638 147.407 165.651 151.05L165.791 164.2" stroke="#262525" stroke-width="1.4" stroke-linecap="round" stroke-linejoin="round"/>
<path d="M168.841 160.915C166.259 163.475 162.092 163.463 159.525 160.888L154.371 155.718C151.806 153.131 151.824 148.955 154.411 146.39C156.998 143.825 161.174 143.842 163.739 146.429L168.868 151.575C171.445 154.16 171.432 158.346 168.841 160.915Z" fill="#CFCFCF"/>
<path d="M154.906 156.255L159.525 160.888C162.092 163.464 166.259 163.476 168.841 160.915C171.433 158.346 171.445 154.159 168.868 151.575L163.739 146.429C161.174 143.842 156.997 143.825 154.411 146.39C153.104 147.685 152.453 149.391 152.459 151.097L152.504 155.247" fill="#CFCFCF"/>
<path d="M154.906 156.255L159.525 160.888C162.092 163.464 166.259 163.476 168.841 160.915C171.433 158.346 171.445 154.159 168.868 151.575L163.739 146.429C161.174 143.842 156.997 143.825 154.411 146.39C153.104 147.685 152.453 149.391 152.459 151.097L152.504 155.247" stroke="#262525" stroke-width="1.4" stroke-linecap="round" stroke-linejoin="round"/>
<path d="M164.301 175.163C160.673 175.176 157.716 172.256 157.683 168.628L157.604 156.241C157.591 152.599 160.534 149.635 164.177 149.622C167.82 149.61 170.783 152.553 170.796 156.196L170.876 168.506C170.91 172.164 167.961 175.15 164.303 175.162L164.301 175.163Z" fill="#CFCFCF"/>
<path d="M157.611 157.598L157.682 168.628C157.715 172.256 160.672 175.176 164.3 175.163C167.958 175.151 170.907 172.164 170.873 168.507L170.794 156.197C170.787 154.183 169.878 152.383 168.451 151.178L166.025 148.724" fill="#CFCFCF"/>
<path d="M157.611 157.598L157.682 168.628C157.715 172.256 160.672 175.176 164.3 175.163C167.958 175.151 170.907 172.164 170.873 168.507L170.794 156.197C170.787 154.183 169.878 152.383 168.451 151.178L166.025 148.724" stroke="#262525" stroke-width="1.4" stroke-linecap="round" stroke-linejoin="round"/>
<path d="M152.598 164.246L139.405 164.291L139.282 151.096C139.27 147.453 142.213 144.49 145.856 144.477C149.499 144.464 152.462 147.407 152.475 151.05L152.598 164.246Z" fill="#CFCFCF"/>
<path d="M139.406 164.291L139.283 151.096C139.271 147.453 142.214 144.49 145.857 144.477C149.5 144.464 152.463 147.407 152.476 151.05L152.599 164.246" fill="#CFCFCF"/>
<path d="M139.406 164.291L139.283 151.096C139.271 147.453 142.214 144.49 145.857 144.477C149.5 144.464 152.463 147.407 152.476 151.05L152.599 164.246" stroke="#262525" stroke-width="1.4" stroke-linecap="round" stroke-linejoin="round"/>
<path d="M155.665 160.915C153.084 163.475 148.916 163.463 146.349 160.888L141.196 155.718C138.631 153.131 138.648 148.955 141.235 146.39C143.822 143.825 147.998 143.842 150.563 146.429L155.692 151.575C158.269 154.16 158.257 158.346 155.665 160.915Z" fill="#CFCFCF"/>
<path d="M142.198 156.724L146.349 160.888C148.916 163.464 153.084 163.476 155.665 160.915C158.257 158.346 158.27 154.159 155.692 151.575L150.563 146.429C147.998 143.842 143.822 143.825 141.235 146.39C139.928 147.685 139.277 149.391 139.283 151.097L139.323 155.349" fill="#CFCFCF"/>
<path d="M142.198 156.724L146.349 160.888C148.916 163.464 153.084 163.476 155.665 160.915C158.257 158.346 158.27 154.159 155.692 151.575L150.563 146.429C147.998 143.842 143.822 143.825 141.235 146.39C139.928 147.685 139.277 149.391 139.283 151.097L139.323 155.349" stroke="#262525" stroke-width="1.4" stroke-linecap="round" stroke-linejoin="round"/>
<path d="M151.043 172.842C147.415 172.854 144.458 169.935 144.425 166.306L144.346 156.242C144.334 152.599 147.277 149.635 150.92 149.622C154.562 149.61 157.526 152.553 157.539 156.196L157.618 166.184C157.652 169.842 154.703 172.829 151.045 172.841L151.043 172.842Z" fill="#CFCFCF"/>
<path d="M144.346 157.334L144.425 166.306C144.458 169.935 147.415 172.854 151.043 172.842C154.701 172.83 157.65 169.843 157.616 166.185L157.537 156.197C157.531 154.387 156.796 152.75 155.612 151.562L153.053 148.929" fill="#CFCFCF"/>
<path d="M144.346 157.334L144.425 166.306C144.458 169.935 147.415 172.854 151.043 172.842C154.701 172.83 157.65 169.843 157.616 166.185L157.537 156.197C157.531 154.387 156.796 152.75 155.612 151.562L153.053 148.929" stroke="#262525" stroke-width="1.4" stroke-linecap="round" stroke-linejoin="round"/>
<path d="M139.407 166.14L126.214 166.185L126.13 152.944C126.118 149.301 129.061 146.338 132.704 146.325C136.347 146.313 139.31 149.256 139.323 152.899L139.407 166.14Z" fill="#CFCFCF"/>
<path d="M126.214 166.185L126.13 152.944C126.118 149.301 129.061 146.338 132.704 146.325C136.347 146.313 139.31 149.256 139.323 152.899L139.407 166.14" fill="#CFCFCF"/>
<path d="M126.214 166.185L126.13 152.944C126.118 149.301 129.061 146.338 132.704 146.325C136.347 146.313 139.31 149.256 139.323 152.899L139.407 166.14" stroke="#262525" stroke-width="1.4" stroke-linecap="round" stroke-linejoin="round"/>
<path d="M142.512 162.764C139.93 165.324 135.763 165.312 133.196 162.737L128.042 157.566C125.477 154.98 125.495 150.803 128.082 148.238C130.668 145.673 134.845 145.691 137.41 148.278L142.539 153.423C145.116 156.009 145.103 160.194 142.512 162.764Z" fill="#CFCFCF"/>
<path d="M128.537 158.062L133.196 162.737C135.763 165.312 139.93 165.325 142.512 162.764C145.104 160.194 145.116 156.008 142.539 153.423L137.41 148.278C134.845 145.691 130.668 145.673 128.081 148.238C126.695 149.614 126.046 151.452 126.139 153.261V157.291" fill="#CFCFCF"/>
<path d="M128.537 158.062L133.196 162.737C135.763 165.312 139.93 165.325 142.512 162.764C145.104 160.194 145.116 156.008 142.539 153.423L137.41 148.278C134.845 145.691 130.668 145.673 128.081 148.238C126.695 149.614 126.046 151.452 126.139 153.261V157.291" stroke="#262525" stroke-width="1.4" stroke-linecap="round" stroke-linejoin="round"/>
<path d="M137.923 171.835C134.295 171.847 131.338 168.927 131.305 165.299L131.226 158.09C131.213 154.447 134.156 151.484 137.799 151.471C141.442 151.459 144.405 154.402 144.419 158.045L144.498 165.178C144.532 168.836 141.583 171.822 137.925 171.835H137.923Z" fill="#CFCFCF"/>
<path d="M131.226 158.09L131.305 165.299C131.338 168.927 134.295 171.847 137.923 171.835C141.581 171.823 144.53 168.836 144.496 165.178L144.417 158.045C144.41 156.103 143.565 154.36 142.225 153.157L139.825 150.702" fill="#CFCFCF"/>
<path d="M131.226 158.09L131.305 165.299C131.338 168.927 134.295 171.847 137.923 171.835C141.581 171.823 144.53 168.836 144.496 165.178L144.417 158.045C144.41 156.103 143.565 154.36 142.225 153.157L139.825 150.702" stroke="#262525" stroke-width="1.4" stroke-linecap="round" stroke-linejoin="round"/>
<path d="M189.52 191.496L176.85 187.819L185.357 158.508C186.372 155.009 190.031 152.997 193.53 154.012C197.029 155.027 199.042 158.686 198.027 162.185L189.521 191.496H189.52Z" fill="#CFCFCF"/>
<path d="M192.244 184.152L192.237 182.131L198.025 162.185C199.04 158.686 197.028 155.028 193.529 154.012C190.03 152.996 186.37 155.009 185.355 158.508L180.866 173.976L171.413 180.981C166.274 184.789 163.244 190.807 163.244 197.203V199.778" fill="#CFCFCF"/>
<path d="M192.244 184.152L192.237 182.131L198.025 162.185C199.04 158.686 197.028 155.028 193.529 154.012C190.03 152.996 186.37 155.009 185.355 158.508L180.866 173.976L171.413 180.981C166.274 184.789 163.244 190.807 163.244 197.203V199.778" stroke="#262525" stroke-width="1.4" stroke-linecap="round" stroke-linejoin="round"/>
<path d="M198.037 162.189C197.025 165.673 193.39 167.686 189.9 166.696L180.221 163.934C176.722 162.919 174.71 159.26 175.725 155.761C176.74 152.262 180.4 150.249 183.898 151.264L193.503 154.005C197.022 155.004 199.056 158.676 198.037 162.189Z" fill="#CFCFCF"/>
<path d="M186.58 165.748L180.221 163.933C176.722 162.918 174.71 159.259 175.725 155.76C176.74 152.261 180.4 150.248 183.898 151.263L193.503 154.004C197.022 155.003 199.056 158.675 198.037 162.188L196.683 166.812" fill="#CFCFCF"/>
<path d="M186.58 165.748L180.221 163.933C176.722 162.918 174.71 159.259 175.725 155.76C176.74 152.261 180.4 150.248 183.898 151.263L193.503 154.004C197.022 155.003 199.056 158.675 198.037 162.188L196.683 166.812" stroke="#262525" stroke-width="1.4" stroke-linecap="round" stroke-linejoin="round"/>
<path d="M309.559 136.771L299.995 147.174L275.929 125.049C273.055 122.408 272.868 117.939 275.509 115.066C278.15 112.192 282.619 112.005 285.492 114.646L309.559 136.771Z" fill="#CFCFCF" stroke="#262525" stroke-width="1.4" stroke-linecap="round" stroke-linejoin="round"/>
<path d="M220.442 204.381H269.731C272.24 204.381 274.359 202.52 274.681 200.032L287.822 98.6993C288.21 95.7127 285.884 93.0664 282.873 93.0664H233.583C231.075 93.0664 228.956 94.928 228.634 97.4155L215.492 198.748C215.105 201.735 217.431 204.381 220.442 204.381Z" fill="white" stroke="#262525" stroke-width="1.4" stroke-linecap="round" stroke-linejoin="round"/>
<path d="M223.855 204.381H273.144C275.653 204.381 277.772 202.52 278.094 200.032L291.235 98.6993C291.623 95.7127 289.297 93.0664 286.286 93.0664H236.997C234.488 93.0664 232.369 94.928 232.047 97.4155L218.906 198.748C218.518 201.735 220.844 204.381 223.855 204.381Z" fill="#262525" stroke="#262525" stroke-width="1.4" stroke-linecap="round" stroke-linejoin="round"/>
<path d="M236.683 119.053H244.13C245.216 119.053 246.134 118.251 246.28 117.175L248.12 103.575C248.296 102.272 247.284 101.114 245.971 101.114H238.524C237.438 101.114 236.52 101.916 236.374 102.993L234.534 116.593C234.357 117.895 235.37 119.053 236.683 119.053Z" fill="white" stroke="#262525" stroke-width="1.4" stroke-linecap="round" stroke-linejoin="round"/>
<path d="M314.19 152.205L310.308 174.87C307.858 189.175 294.275 198.784 279.971 196.334L268.325 194.339L277.868 138.625L279.76 138.949C285.289 139.896 290.804 137.199 293.452 132.254L296.05 127.402L296.724 127.518C308.364 129.512 316.183 140.564 314.19 152.204V152.205Z" fill="#CFCFCF"/>
<path d="M297.326 125.525L300.816 128.642C310.132 132.226 315.94 141.989 314.19 152.204L310.308 174.869C309.617 178.904 308.04 182.565 305.81 185.688C305.81 185.688 304.642 187.791 303.107 189.669C301.573 191.547 299.064 194.698 299.064 194.698" stroke="#262525" stroke-width="1.4" stroke-linecap="round" stroke-linejoin="round"/>
<path d="M292.506 133.766C289.622 137.737 284.697 139.796 279.76 138.95L277.868 138.626L268.325 194.34L279.971 196.335C284.429 197.099 288.816 196.691 292.819 195.335" stroke="#262525" stroke-width="1.4" stroke-linecap="round" stroke-linejoin="round"/>
<path d="M272.809 180.77L270.423 194.699L244.535 190.264C240.689 189.605 238.105 185.953 238.764 182.107C239.422 178.261 243.074 175.677 246.92 176.335L272.808 180.77H272.809Z" fill="#CFCFCF"/>
<path d="M270.423 194.699L244.535 190.264C240.689 189.605 238.105 185.953 238.764 182.107C239.422 178.261 243.074 175.677 246.92 176.335L272.808 180.77" stroke="#262525" stroke-width="1.4" stroke-linecap="round" stroke-linejoin="round"/>
<path d="M275.195 166.841L272.809 180.77L234.983 174.291C231.137 173.632 228.554 169.981 229.212 166.134C229.871 162.288 233.522 159.705 237.369 160.363L275.194 166.841H275.195Z" fill="#CFCFCF"/>
<path d="M272.809 180.77L234.983 174.291C231.137 173.632 228.554 169.981 229.212 166.134C229.871 162.288 233.522 159.705 237.369 160.363L275.194 166.841" stroke="#262525" stroke-width="1.4" stroke-linecap="round" stroke-linejoin="round"/>
<path d="M277.58 152.914L275.194 166.842L232.043 159.451C228.197 158.792 225.613 155.14 226.271 151.294C226.93 147.447 230.582 144.864 234.428 145.522L277.579 152.914H277.58Z" fill="#CFCFCF"/>
<path d="M275.195 166.841L232.044 159.45C228.198 158.791 225.614 155.139 226.272 151.293C226.931 147.446 230.583 144.863 234.429 145.521L277.58 152.913" stroke="#262525" stroke-width="1.4" stroke-linecap="round" stroke-linejoin="round"/>
<path d="M279.966 138.985L277.58 152.914L239.755 146.435C235.909 145.776 233.325 142.124 233.983 138.278C234.641 134.432 238.294 131.848 242.14 132.506L279.966 138.985H279.966Z" fill="#CFCFCF"/>
<path d="M277.58 152.914L239.755 146.435C235.909 145.776 233.325 142.124 233.983 138.278C234.641 134.432 238.294 131.848 242.14 132.506L279.966 138.985" stroke="#262525" stroke-width="1.4" stroke-linecap="round" stroke-linejoin="round"/>
</g>
<defs>
<clipPath id="clip0_97_3728">
<rect width="326" height="303" fill="white" transform="translate(0.5)"/>
</clipPath>
</defs>
</svg>
